<?xml version="1.0" encoding="UTF-8"?>
<svg version="1.1" xmlns="http://www.w3.org/2000/svg" width="64" height="64">
<path d="M0 0 C2.04146591 -0.00436055 4.08074385 -0.04068319 6.12182617 -0.07861328 C14.90752544 -0.10464498 20.70890427 0.395706 27.48706055 6.33544922 C28.02588867 6.98642578 28.5647168 7.63740234 29.11987305 8.30810547 C29.95131836 9.28070312 29.95131836 9.28070312 30.79956055 10.27294922 C35.07590067 16.47942124 34.61722167 22.83497854 34.61547852 30.12573242 C34.61983907 32.16719833 34.6561617 34.20647627 34.6940918 36.24755859 C34.7201235 45.03325786 34.21977251 50.83463669 28.2800293 57.61279297 C27.62905273 58.15162109 26.97807617 58.69044922 26.30737305 59.24560547 C25.33477539 60.07705078 25.33477539 60.07705078 24.3425293 60.92529297 C18.13605728 65.20163309 11.78049998 64.74295409 4.48974609 64.74121094 C2.44828018 64.74557149 0.40900224 64.78189413 -1.63208008 64.81982422 C-10.41777935 64.84585592 -16.21915818 64.34550494 -22.99731445 58.40576172 C-23.53614258 57.75478516 -24.0749707 57.10380859 -24.63012695 56.43310547 C-25.18442383 55.78470703 -25.7387207 55.13630859 -26.30981445 54.46826172 C-30.58615458 48.2617897 -30.12747558 41.9062324 -30.12573242 34.61547852 C-30.13009298 32.57401261 -30.16641561 30.53473466 -30.2043457 28.49365234 C-30.2303774 19.70795307 -29.73002642 13.90657424 -23.7902832 7.12841797 C-23.13930664 6.58958984 -22.48833008 6.05076172 -21.81762695 5.49560547 C-21.16922852 4.94130859 -20.52083008 4.38701172 -19.8527832 3.81591797 C-13.64631119 -0.46042215 -7.29075389 -0.00174316 0 0 Z " fill="#4889F0" transform="translate(29.755126953125,-0.37060546875)"/>
<path d="M0 0 C2.04146591 -0.00436055 4.08074385 -0.04068319 6.12182617 -0.07861328 C14.90752544 -0.10464498 20.70890427 0.395706 27.48706055 6.33544922 C28.02588867 6.98642578 28.5647168 7.63740234 29.11987305 8.30810547 C29.95131836 9.28070312 29.95131836 9.28070312 30.79956055 10.27294922 C35.07590067 16.47942124 34.61722167 22.83497854 34.61547852 30.12573242 C34.61983907 32.16719833 34.6561617 34.20647627 34.6940918 36.24755859 C34.7201235 45.03325786 34.21977251 50.83463669 28.2800293 57.61279297 C27.62905273 58.15162109 26.97807617 58.69044922 26.30737305 59.24560547 C25.33477539 60.07705078 25.33477539 60.07705078 24.3425293 60.92529297 C18.13605728 65.20163309 11.78049998 64.74295409 4.48974609 64.74121094 C2.44828018 64.74557149 0.40900224 64.78189413 -1.63208008 64.81982422 C-10.41777935 64.84585592 -16.21915818 64.34550494 -22.99731445 58.40576172 C-23.53614258 57.75478516 -24.0749707 57.10380859 -24.63012695 56.43310547 C-25.18442383 55.78470703 -25.7387207 55.13630859 -26.30981445 54.46826172 C-30.58615458 48.2617897 -30.12747558 41.9062324 -30.12573242 34.61547852 C-30.13009298 32.57401261 -30.16641561 30.53473466 -30.2043457 28.49365234 C-30.2303774 19.70795307 -29.73002642 13.90657424 -23.7902832 7.12841797 C-23.13930664 6.58958984 -22.48833008 6.05076172 -21.81762695 5.49560547 C-21.16922852 4.94130859 -20.52083008 4.38701172 -19.8527832 3.81591797 C-13.64631119 -0.46042215 -7.29075389 -0.00174316 0 0 Z M-18.0559082 16.21044922 C-23.2405524 22.80150265 -23.71255993 30.1947733 -22.75512695 38.37060547 C-21.04608224 44.78193703 -18.23876161 48.71484903 -12.75512695 52.37060547 C-6.87063931 55.71668668 -1.3743373 56.31750764 5.24487305 55.37060547 C14.13372201 52.5758582 19.57132986 46.94150188 24.18237305 39.05810547 C26.22671379 31.96304052 26.24722777 25.7648152 23.11987305 18.99560547 C20.15686378 13.73730733 17.06614971 10.7812438 11.61987305 8.05810547 C-0.33245511 5.62337196 -9.70373084 7.16909415 -18.0559082 16.21044922 Z " fill="#1A0AF0" transform="translate(29.755126953125,-0.37060546875)"/>
<path d="M0 0 C5.3816143 2.84227643 8.70023056 5.93634098 11.734375 11.24609375 C12.85865716 15.46215186 12.98389029 19.72456399 12.484375 24.05859375 C8.75506169 29.65256371 4.8059983 31.57115297 -1.515625 33.05859375 C-3.495625 30.08859375 -5.475625 27.11859375 -7.515625 24.05859375 C-10.485625 26.03859375 -13.455625 28.01859375 -16.515625 30.05859375 C-17.175625 29.72859375 -17.835625 29.39859375 -18.515625 29.05859375 C-17.06518229 24.94900608 -15.00451748 21.6260063 -12.515625 18.05859375 C-14.990625 17.06859375 -14.990625 17.06859375 -17.515625 16.05859375 C-19.000625 18.53359375 -19.000625 18.53359375 -20.515625 21.05859375 C-22.165625 19.73859375 -23.815625 18.41859375 -25.515625 17.05859375 C-25.845625 19.03859375 -26.175625 21.01859375 -26.515625 23.05859375 C-26.845625 23.05859375 -27.175625 23.05859375 -27.515625 23.05859375 C-28.05940913 16.53318424 -27.55910146 11.39015827 -23.515625 6.05859375 C-16.76467176 -0.18977344 -9.07197547 -3.39494734 0 0 Z " fill="#AEC2CE" transform="translate(39.515625,12.94140625)"/>
<path d="M0 0 C2.475 0.99 2.475 0.99 5 2 C5 5.39593478 4.47834052 6.06619881 2.5 8.6875 C2.0359375 9.31011719 1.571875 9.93273438 1.09375 10.57421875 C0.7328125 11.04472656 0.371875 11.51523437 0 12 C0.33 12.66 0.66 13.32 1 14 C4.3 12.02 7.6 10.04 11 8 C13.475 12.455 13.475 12.455 16 17 C21.02265357 15.81819916 24.0949151 14.55007718 28 11 C27.41661146 14.93787261 25.75728395 17.17201647 23 20 C17.38311252 24.00835619 11.7878033 25.04676776 5 24 C-0.61414192 22.34417106 -3.90577861 19.52984883 -7.08984375 14.68359375 C-8.82123892 11.48088422 -9.11415211 8.87649563 -9.0625 5.3125 C-9.05347656 4.50425781 -9.04445313 3.69601563 -9.03515625 2.86328125 C-9.02355469 2.24839844 -9.01195312 1.63351563 -9 1 C-7.02 2.32 -5.04 3.64 -3 5 C-2.01 3.35 -1.02 1.7 0 0 Z " fill="#E7E9E9" transform="translate(22,28)"/>
<path d="M0 0 C3.16115776 1.36983503 3.9927092 1.9890638 6 5 C5.7215625 5.8971875 5.7215625 5.8971875 5.4375 6.8125 C4.77612361 10.11938194 6.48003049 12.08165854 8 15 C8 16.32 8 17.64 8 19 C9.65 19.33 11.3 19.66 13 20 C13 21.98 13 23.96 13 26 C11.35 26.33 9.7 26.66 8 27 C7.814375 28.299375 7.814375 28.299375 7.625 29.625 C7 33 7 33 5.9375 36.125 C4.7933196 39.12982113 4.7933196 39.12982113 5 43 C3.8125 44.8125 3.8125 44.8125 2 46 C1.2575 45.835 0.515 45.67 -0.25 45.5 C-4.14792699 44.791286 -6.47373407 46.36746948 -10 48 C-10.99 48 -11.98 48 -13 48 C-13.33 49.65 -13.66 51.3 -14 53 C-15.98 53 -17.96 53 -20 53 C-20.495 50.525 -20.495 50.525 -21 48 C-21.86625 47.87625 -22.7325 47.7525 -23.625 47.625 C-27 47 -27 47 -30.1875 45.875 C-33.03753434 44.68819239 -33.03753434 44.68819239 -36 46 C-37.32 44.68 -38.64 43.36 -40 42 C-39.34 40.68 -38.68 39.36 -38 38 C-37.31292969 38.42152344 -36.62585938 38.84304687 -35.91796875 39.27734375 C-35.01691406 39.82519531 -34.11585937 40.37304688 -33.1875 40.9375 C-31.84751953 41.75541016 -31.84751953 41.75541016 -30.48046875 42.58984375 C-25.15843363 45.61544167 -19.97865282 45.68081518 -14 45 C-5.46629612 42.28140576 -0.50291187 37.33838057 3.875 29.75 C6.05363379 22.48788735 6.00921228 16.35853672 2.625 9.5 C1.1845299 6.90546907 -0.35226304 4.47160544 -2 2 C-1.34 1.34 -0.68 0.68 0 0 Z " fill="#040C1B" transform="translate(49,9)"/>
<path d="M0 0 C0 0.99 0 1.98 0 3 C1.65 2.34 3.3 1.68 5 1 C5.33 1.99 5.66 2.98 6 4 C7.0828125 3.01 7.0828125 3.01 8.1875 2 C11.21597933 -0.1535853 12.39703406 -0.41176754 16 0 C16.25 2.25 16.25 2.25 16 5 C15.319375 5.66 14.63875 6.32 13.9375 7 C13.298125 7.66 12.65875 8.32 12 9 C12.23870425 11.61098043 12.23870425 11.61098043 13 14 C12.67 14.66 12.34 15.32 12 16 C12.99 16.33 13.98 16.66 15 17 C14.34 19.31 13.68 21.62 13 24 C11.68 24 10.36 24 9 24 C6.91382466 21.54050908 5.58989604 18.82648185 4 16 C-0.455 18.97 -0.455 18.97 -5 22 C-5.66 21.67 -6.32 21.34 -7 21 C-5.54955729 16.89041233 -3.48889248 13.56741255 -1 10 C-1.5775 9.59007812 -2.155 9.18015625 -2.75 8.7578125 C-3.4925 8.21898437 -4.235 7.68015625 -5 7.125 C-5.7425 6.59132813 -6.485 6.05765625 -7.25 5.5078125 C-7.8275 5.01023437 -8.405 4.51265625 -9 4 C-9 3.34 -9 2.68 -9 2 C-2.25 0 -2.25 0 0 0 Z " fill="#0E0B07" transform="translate(28,21)"/>
<path d="M0 0 C5.31098394 1.62280065 7.55060877 4.46356535 10.25 9.1875 C11.37428216 13.40355811 11.49951529 17.66597024 11 22 C8.92683547 25.1097468 7.03400866 26.85399387 4 29 C3.01 29 2.02 29 1 29 C1 27.02 1 25.04 1 23 C0.34 22.67 -0.32 22.34 -1 22 C-1.875 18.6875 -1.875 18.6875 -2 15 C-0.125 12.875 -0.125 12.875 2 11 C2.79681318 8.35815459 2.79681318 8.35815459 3 6 C-1.60742865 7.21044132 -1.60742865 7.21044132 -6 9 C-5.52797514 4.75177626 -3.03344482 2.80010291 0 0 Z " fill="#AFC2CB" transform="translate(41,15)"/>
<path d="M0 0 C2.40072955 2.88087546 4.47291037 5.56404834 6 9 C11.02265357 7.81819916 14.0949151 6.55007718 18 3 C17.41661146 6.93787261 15.75728395 9.17201647 13 12 C7.22899684 16.11833713 1.93299589 16.51145052 -5 16 C-5.6171875 14.11328125 -5.6171875 14.11328125 -6 12 C-5.38125 11.401875 -4.7625 10.80375 -4.125 10.1875 C-1.30129784 7.28074778 -1.37236593 4.94707883 -1 1 C-0.67 0.67 -0.34 0.34 0 0 Z " fill="#ECEDEE" transform="translate(32,36)"/>
<path d="M0 0 C0.99 0.33 1.98 0.66 3 1 C2.56671758 3.51303805 2.3219867 4.71516561 0.375 6.4375 C-0.07875 6.953125 -0.5325 7.46875 -1 8 C-0.67147918 10.55936559 -0.67147918 10.55936559 0 13 C-0.33 13.66 -0.66 14.32 -1 15 C-0.01 15.33 0.98 15.66 2 16 C1.34 18.31 0.68 20.62 0 23 C-1.32 23 -2.64 23 -4 23 C-6.08617534 20.54050908 -7.41010396 17.82648185 -9 15 C-13.455 17.97 -13.455 17.97 -18 21 C-18.66 20.67 -19.32 20.34 -20 20 C-18.76442705 16.29328114 -17.85094294 16.11725168 -14.5 14.3125 C-9.12926235 11.21697398 -4.12388287 7.6717417 0 3 C0 2.01 0 1.02 0 0 Z " fill="#24180D" transform="translate(41,22)"/>
<path d="M0 0 C2.64 0.33 5.28 0.66 8 1 C7.03250577 3.15825637 6.21906689 4.7900609 4.5 6.4375 C2.60096688 8.4156595 1.90100969 10.43558782 1 13 C0.67 11.68 0.34 10.36 0 9 C-1.98 9.99 -1.98 9.99 -4 11 C-4 9.68 -4 8.36 -4 7 C-5.65 6.67 -7.3 6.34 -9 6 C-8.67 5.01 -8.34 4.02 -8 3 C-6.515 3.99 -6.515 3.99 -5 5 C-3.34450469 5.38499891 -1.6777567 5.72793135 0 6 C0 4.02 0 2.04 0 0 Z " fill="#EDEEEE" transform="translate(33,13)"/>
<path d="M0 0 C0.33 0.99 0.66 1.98 1 3 C-2.33171744 8.05131354 -6.14938282 11.24783582 -12 13 C-15.3659816 13.29770451 -18.63262676 13.24841278 -22 13 C-18.68541032 11.26838701 -15.34835188 10.04898411 -11.8046875 8.87890625 C-9.64531662 8.0152524 -9.64531662 8.0152524 -8 5 C-6.33927151 4.31867549 -4.672233 3.65257873 -3 3 C-1.22722741 1.47992158 -1.22722741 1.47992158 0 0 Z " fill="#DBDEE5" transform="translate(49,39)"/>
<path d="M0 0 C0.66 0.33 1.32 0.66 2 1 C2.33 1.99 2.66 2.98 3 4 C3.53625 4.45375 4.0725 4.9075 4.625 5.375 C5.07875 5.91125 5.5325 6.4475 6 7 C5.6875 9.6875 5.6875 9.6875 5 12 C3.25 11.9375 3.25 11.9375 1 11 C-0.76735287 8.74590076 -1.7699101 6.64241534 -3 4 C-2.67 3.01 -2.34 2.02 -2 1 C-1.34 0.67 -0.68 0.34 0 0 Z " fill="#070706" transform="translate(37,32)"/>
<path d="M0 0 C0.375 2.6875 0.375 2.6875 0 6 C-1.823983 8.06398076 -3.72763839 9.39041053 -6 11 C-7.4606285 8.35261084 -8 7.10551666 -8 4 C-2.74285714 0 -2.74285714 0 0 0 Z " fill="#B0C5CE" transform="translate(31,38)"/>
<path d="M0 0 C1.60471728 0.95741106 3.20875329 1.91596405 4.8125 2.875 C5.70582031 3.40867188 6.59914063 3.94234375 7.51953125 4.4921875 C9.37294724 5.61883092 11.19529917 6.79686611 13 8 C12.01 8.495 12.01 8.495 11 9 C10.030625 8.67 9.06125 8.34 8.0625 8 C5.00837152 6.66660903 5.00837152 6.66660903 2 8 C0.68 6.68 -0.64 5.36 -2 4 C-1.34 2.68 -0.68 1.36 0 0 Z " fill="#06112A" transform="translate(11,47)"/>
<path d="M0 0 C-2.9905167 3.33557632 -5.93184627 5.15083921 -10 7 C-10 5.68 -10 4.36 -10 3 C-3.375 -1.125 -3.375 -1.125 0 0 Z " fill="#3B260A" transform="translate(32,36)"/>
<path d="M0 0 C1.32 0 2.64 0 4 0 C4 2.64 4 5.28 4 8 C2.35 7.67 0.7 7.34 -1 7 C-1.04254356 5.00045254 -1.04080783 2.99958364 -1 1 C-0.67 0.67 -0.34 0.34 0 0 Z " fill="#08113C" transform="translate(3,28)"/>
<path d="M0 0 C1.98 0 3.96 0 6 0 C6.33 1.65 6.66 3.3 7 5 C4.36 5 1.72 5 -1 5 C-0.67 3.35 -0.34 1.7 0 0 Z " fill="#08113D" transform="translate(29,2)"/>
<path d="M0 0 C2.64 0 5.28 0 8 0 C7.67 1.65 7.34 3.3 7 5 C5.02 5 3.04 5 1 5 C0.67 3.35 0.34 1.7 0 0 Z " fill="#050D30" transform="translate(28,57)"/>
<path d="M0 0 C2.475 0.495 2.475 0.495 5 1 C5 2.98 5 4.96 5 7 C3.35 7.33 1.7 7.66 0 8 C0 5.36 0 2.72 0 0 Z " fill="#050D2F" transform="translate(57,28)"/>
<path d="M0 0 C0.99 0.66 1.98 1.32 3 2 C1.95125002 4.62187494 1.35068687 5.79371361 -1.125 7.25 C-1.74375 7.4975 -2.3625 7.745 -3 8 C-3.66 7.01 -4.32 6.02 -5 5 C-3.35 3.35 -1.7 1.7 0 0 Z " fill="#030C25" transform="translate(52,47)"/>
<path d="M0 0 C0.66 0 1.32 0 2 0 C2.33 4.95 2.66 9.9 3 15 C2.34 15 1.68 15 1 15 C-0.09506492 11.71480525 -0.09960608 9.26336585 -0.0625 5.8125 C-0.05347656 4.72582031 -0.04445313 3.63914062 -0.03515625 2.51953125 C-0.02355469 1.68808594 -0.01195312 0.85664063 0 0 Z " fill="#5191F6" transform="translate(7,26)"/>
<path d="M0 0 C1.32 0.66 2.64 1.32 4 2 C2.35 3.98 0.7 5.96 -1 8 C-1.99 7.01 -2.98 6.02 -4 5 C-2.68 3.35 -1.36 1.7 0 0 Z " fill="#051126" transform="translate(13,9)"/>
<path d="M0 0 C1.48754006 0.73325207 2.96486192 1.48726078 4.4375 2.25 C5.67306641 2.87648438 5.67306641 2.87648438 6.93359375 3.515625 C9 5 9 5 9.78515625 7.171875 C9.85605469 7.77515625 9.92695313 8.3784375 10 9 C8.51444617 8.07265428 7.03672494 7.13275187 5.5625 6.1875 C4.73878906 5.66542969 3.91507813 5.14335937 3.06640625 4.60546875 C1 3 1 3 0 0 Z " fill="#1A130F" transform="translate(19,23)"/>
<path d="M0 0 C1.98 0 3.96 0 6 0 C4.515 2.475 4.515 2.475 3 5 C1.68 4.34 0.36 3.68 -1 3 C-0.67 2.01 -0.34 1.02 0 0 Z " fill="#EEAA37" transform="translate(18,36)"/>
<path d="M0 0 C0 1.98 0 3.96 0 6 C-0.99 6.33 -1.98 6.66 -3 7 C-3.33 5.35 -3.66 3.7 -4 2 C-1 0 -1 0 0 0 Z " fill="#F4AA2C" transform="translate(27,40)"/>
<path d="M0 0 C0.66 0.33 1.32 0.66 2 1 C-0.31 3.64 -2.62 6.28 -5 9 C-5.33 8.01 -5.66 7.02 -6 6 C-4.02 4.02 -2.04 2.04 0 0 Z " fill="#B8CCD7" transform="translate(41,15)"/>
</svg>
